<svg xmlns="http://www.w3.org/2000/svg" width="24" height="24" viewBox="0 0 24 24"><path d="M22.9 6.863c-.7-.7-1.7-1.1-2.7-1.1h-1.8c-.1-1.5-.8-2.8-1.9-3.9-1.2-1.2-2.8-1.8-4.6-1.8-1.7 0-3.4.7-4.6 1.8-1.1 1-1.7 2.4-1.9 3.9H3.8c-2-.1-3.8 1.5-3.8 3.6v10.9c0 1 .4 1.9 1.1 2.6.7.7 1.7 1.1 2.7 1.1H20.2c1 0 1.9-.4 2.7-1 .7-.7 1.2-1.6 1.2-2.6v-10.9c-.1-1-.4-1.9-1.2-2.6zm-14.1-3.7c.9-.8 2-1.3 3.2-1.3 1.2 0 2.4.5 3.2 1.3.7.7 1.1 1.6 1.3 2.5h-9c.1-.9.6-1.8 1.3-2.5zm13.3 17.2c0 .5-.2 1-.6 1.3-.4.3-.8.5-1.4.5H3.8c-.5 0-1-.2-1.3-.6-.4-.4-.5-.8-.5-1.3v-10.9c0-1 .9-1.8 2-1.8h16.3c.5 0 1 .2 1.3.6.4.4.5.8.5 1.3v10.9z"/></svg>