<?xml version="1.0" encoding="utf-8"?>
<!-- Generator: Adobe Illustrator 25.1.0, SVG Export Plug-In . SVG Version: 6.00 Build 0)  -->
<svg version="1.1" id="Capa_1" xmlns="http://www.w3.org/2000/svg" xmlns:xlink="http://www.w3.org/1999/xlink" x="0px" y="0px"
	 viewBox="0 0 512 512" style="enable-background:new 0 0 512 512;" xml:space="preserve">
<style type="text/css">
	.st0{fill:#FFFFFF;}
</style>
<g>
	<path class="st0" d="M453.6,402.2L334.8,230.4c-5.8-8.4-8.8-18.2-8.8-28.4V20h30c5.5,0,10-4.5,10-10s-4.5-10-10-10H156
		c-5.5,0-10,4.5-10,10s4.5,10,10,10h30v182c0,10.2-3.1,20-8.8,28.4L58.4,402.2C50.3,414,46,427.7,46,442c0,38.6,31.4,70,70,70h280
		c38.6,0,70-31.4,70-70C466,427.7,461.7,414,453.6,402.2z M193.6,241.8C201.7,230,206,216.3,206,202V20h100v182
		c0,14.3,4.3,28,12.4,39.8l20.9,30.3c-1.1,0-2.2,0-3.3,0c-41.9,0-82.8,20.2-84.5,21.1c-0.4,0.2-38.5,18.9-75.5,18.9
		c-8.9,0-18.5-1.1-28.7-3.2L193.6,241.8z M396,492H116c-27.6,0-50-22.4-50-50c0-10.2,3.1-20,8.8-28.4l60.2-87.1
		c14.6,3.6,28.3,5.5,41,5.5c41.9,0,82.8-20.2,84.5-21.1c0.4-0.2,38.5-18.9,75.5-18.9c5.7,0,11.7,0.5,18,1.3l83.1,120.3
		c5.8,8.4,8.8,18.2,8.8,28.4C446,469.6,423.6,492,396,492z"/>
	<circle class="st0" cx="316" cy="362" r="30"/>
	<circle class="st0" cx="196" cy="402" r="30"/>
	<circle class="st0" cx="296" cy="442" r="10"/>
</g>
</svg>
