<?xml version="1.0" encoding="utf-8"?>
<!-- Generator: Adobe Illustrator 25.1.0, SVG Export Plug-In . SVG Version: 6.00 Build 0)  -->
<svg version="1.1" id="Layer_1" xmlns="http://www.w3.org/2000/svg" xmlns:xlink="http://www.w3.org/1999/xlink" x="0px" y="0px"
	 viewBox="0 0 479 479" style="enable-background:new 0 0 479 479;" xml:space="preserve">
<style type="text/css">
	.st0{fill:#FFFFFF;}
</style>
<path class="st0" d="M293.7,195l-72,68l-34.5-35.5c-3.8-3.9-10.1-4-14.1-0.2c-3.9,3.8-4,10.1-0.2,14.1l41.4,42.5
	c3.8,3.9,10.1,4,14.1,0.3l79.2-74.7c1.9-1.8,3-4.3,3.1-7c0.1-2.6-0.9-5.2-2.7-7.1C304.1,191.4,297.7,191.2,293.7,195z"/>
<path class="st0" d="M240.3,90.4c-82.3,0-149.1,66.9-149.1,149.1c0,82.3,66.9,149.1,149.1,149.1c82.3,0,149.1-66.9,149.1-149.1
	C389.4,157.3,322.5,90.4,240.3,90.4z M240.3,368.7c-71.3,0-129.2-58-129.2-129.2S169,110.4,240.3,110.4
	c71.3,0,129.2,57.8,129.2,129.2S311.6,368.7,240.3,368.7z"/>
<path class="st0" d="M445.5,184.6l3.3-59.2c0.2-4-1.9-7.7-5.5-9.5l-52.7-26.7L364,36.6c-1.8-3.5-5.5-5.7-9.5-5.5l-59.3,3.2
	L245.8,1.6c-3.3-2.2-7.6-2.2-11,0l-49.4,32.6L126.2,31c-4-0.2-7.7,1.9-9.5,5.5L90,89.2l-52.7,26.7c-3.5,1.8-5.7,5.5-5.5,9.5
	l3.3,59.2L2.5,233.9c-2.2,3.3-2.2,7.6,0,11L35,294.4l-3.3,59.2c-0.2,4,1.9,7.7,5.5,9.5l52.7,26.7l26.7,52.7c1.8,3.5,5.5,5.7,9.5,5.5
	l59.2-3.3l49.4,32.6c3.3,2.3,7.7,2.3,11,0l49.4-32.6l59.2,3.3c4,0.2,7.7-1.9,9.5-5.5l26.7-52.7l52.7-26.7c3.5-1.8,5.7-5.5,5.5-9.5
	l-3.3-59.2L478,245c2.2-3.3,2.2-7.7,0-11L445.5,184.6z M426.9,286.2c-1.2,1.8-1.8,3.9-1.6,6.1l3.1,56l-49.8,25.2
	c-1.9,1-3.4,2.5-4.4,4.4l-25.2,49.8l-56-3.1c-2.1-0.1-4.3,0.5-6.1,1.6L240.3,457l-46.7-30.8c-1.6-1.1-3.5-1.7-5.5-1.7h-0.5l-56,3.1
	l-25.2-49.8c-1-1.9-2.5-3.4-4.4-4.4l-49.9-25.1l3.1-56c0.1-2.1-0.5-4.3-1.6-6.1l-30.8-46.7l30.8-46.7c1.2-1.8,1.8-3.9,1.6-6.1
	l-3.1-56l49.8-25.2c1.9-1,3.4-2.5,4.4-4.4l25.2-49.8l56,3.1c2.1,0.1,4.3-0.5,6.1-1.6L240.3,22L287,52.9c1.8,1.2,3.9,1.8,6.1,1.6
	l56-3.1l25.2,49.8c1,1.9,2.5,3.4,4.4,4.4l49.8,25.2l-3.1,56c-0.1,2.1,0.5,4.3,1.6,6.1l30.8,46.7L426.9,286.2z"/>
</svg>
