<?xml version="1.0" encoding="utf-8"?>
<!-- Generator: Adobe Illustrator 25.1.0, SVG Export Plug-In . SVG Version: 6.00 Build 0)  -->
<svg version="1.1" id="Layer_1" xmlns="http://www.w3.org/2000/svg" xmlns:xlink="http://www.w3.org/1999/xlink" x="0px" y="0px"
	 viewBox="0 0 511 511" style="enable-background:new 0 0 511 511;" xml:space="preserve">
<style type="text/css">
	.st0{fill:#FFFFFF;}
</style>
<g id="surface1">
	<g>
		<path class="st0" d="M340.2,324.1c-1.8,0-3.5-0.4-5.1-1.3l-64.3-33.8l-64.3,33.8c-1.6,0.8-3.3,1.3-5.1,1.3c-2.3,0-4.6-0.7-6.4-2.1
			c-3.4-2.5-5.1-6.6-4.4-10.7l12.3-71.6l-52-50.7c-3-2.9-4.1-7.2-2.8-11.2c1.3-4,4.7-6.9,8.9-7.5l71.9-10.4L261,94.8
			c1.9-3.8,5.6-6.1,9.8-6.1c4.2,0,8,2.3,9.8,6.1l32.1,65.1l71.9,10.4c4.2,0.6,7.6,3.5,8.9,7.5c1.3,4,0.2,8.3-2.8,11.2l-52,50.7
			l12.2,70.9l0,0.1c0.2,0.8,0.3,1.6,0.3,2.5C351.1,319.2,346.2,324.1,340.2,324.1L340.2,324.1z M245.9,174.8c-1.6,3.2-4.7,5.5-8.3,6
			l-55.6,8.1l40.2,39.2c2.6,2.5,3.8,6.2,3.2,9.7l-9.5,55.3l49.7-26.1c1.6-0.8,3.3-1.3,5.1-1.3c1.8,0,3.5,0.4,5.1,1.3l49.7,26.1
			l-9.5-55.3c-0.6-3.6,0.6-7.2,3.2-9.7l40.2-39.2l-55.6-8.1c-3.6-0.5-6.7-2.8-8.3-6l-24.9-50.3L245.9,174.8z"/>
	</g>
	<g>
		<path class="st0" d="M198.6,506c-28.2,0-51.1-22.9-51.1-51.1v-16c0-16.1-13.1-29.1-29.1-29.1c-28.2,0-51.1-22.9-51.1-51.1v-29.1
			h-8.3c-6.4,0-12.2-3-15.9-8.3c-6.8-9.5-7-25.6-0.7-44.2l24.9-72.6l0-0.6c0.6-53.7,22.1-104.2,60.4-142.1C166.2,23.9,217,3,270.8,3
			c112.2,0,203.4,91.2,203.4,203.4c0,39.7-11.4,78.1-33.1,111.2c-19.2,29.4-45.9,53.5-77,69.5l-2.2,1.1v66.7
			c0,28.2-22.9,51.1-51.1,51.1H198.6z M270.8,24.9c-100.1,0-181.5,81.4-181.5,181.5c0,1.2-0.2,2.4-0.6,3.6l-25.5,74.3
			c-3.4,9.9-3.5,16.6-3.3,19.7l0.3,3.7h18.1c6,0,11,4.9,11,11v40.1c0,16.1,13.1,29.1,29.1,29.1c28.2,0,51.1,22.9,51.1,51.1v16
			c0,16.1,13.1,29.1,29.1,29.1h112.2c16.1,0,29.1-13.1,29.1-29.1v-73.6c0-4.3,2.5-8.2,6.4-10c64.3-29.5,105.9-94.3,105.9-165
			C452.2,106.3,370.8,24.9,270.8,24.9z"/>
	</g>
</g>
</svg>
